<svg width="18" height="18" viewBox="0 0 18 18" fill="none" xmlns="http://www.w3.org/2000/svg">
<path d="M14.0002 8.29764L5.99002 0.287559C5.80475 0.102146 5.55744 0 5.29373 0C5.03003 0 4.78271 0.102146 4.59744 0.287559L4.00755 0.87731C3.6237 1.2616 3.6237 1.88618 4.00755 2.26988L10.7339 8.99627L4.00008 15.7301C3.81482 15.9155 3.71252 16.1627 3.71252 16.4263C3.71252 16.6901 3.81482 16.9373 4.00008 17.1228L4.58998 17.7124C4.77539 17.8979 5.02256 18 5.28627 18C5.54997 18 5.79729 17.8979 5.98256 17.7124L14.0002 9.69504C14.186 9.50905 14.288 9.26071 14.2874 8.99671C14.288 8.73169 14.186 8.48349 14.0002 8.29764Z" fill="#BFBFBF"/>
</svg>
