<svg width="21" height="21" viewBox="0 0 21 21" fill="none" xmlns="http://www.w3.org/2000/svg">
<g clip-path="url(#clip0_1_3694)">
<path d="M19.2569 8.16815L10.9461 2.20892C10.6808 2.02356 10.3227 2.02149 10.0544 2.20892L1.74357 8.16815C0.904843 8.76952 -0.00620633 7.50164 0.833766 6.89934L9.14781 0.937838C9.14964 0.936511 9.15148 0.935223 9.15335 0.933896C9.95582 0.368945 11.0354 0.362309 11.8472 0.933896C11.8491 0.935184 11.8509 0.936511 11.8528 0.937838L20.1667 6.89934C21.0084 7.50285 20.0884 8.76437 19.2569 8.16815Z" fill="white"/>
<path d="M16.5911 20.4923H12.0634C11.6322 20.4923 11.2828 20.1428 11.2828 19.7117V16.5891C11.2828 16.1587 10.9326 15.8085 10.5021 15.8085C10.0717 15.8085 9.72147 16.1587 9.72147 16.5891V19.7117C9.72147 20.1428 9.37197 20.4923 8.94083 20.4923H4.4131C3.12176 20.4923 2.07117 19.4417 2.07117 18.1504V11.1483C2.07117 10.3889 2.44111 9.67446 3.06098 9.23613L9.14762 4.84236C9.15012 4.84052 9.15265 4.83873 9.15523 4.83693C9.95769 4.27214 11.037 4.26546 11.849 4.83693C11.8515 4.83873 11.8541 4.84052 11.8566 4.84236L17.9433 9.23617C18.5631 9.6745 18.9331 10.3889 18.9331 11.1484V18.1504C18.9331 19.4417 17.8825 20.4923 16.5911 20.4923Z" fill="white"/>
</g>
<defs>
<clipPath id="clip0_1_3694">
<rect width="20" height="20" fill="white" transform="translate(0.5 0.5)"/>
</clipPath>
</defs>
</svg>
