<svg width="24" height="23" viewBox="0 0 24 23" fill="none" xmlns="http://www.w3.org/2000/svg">
<path fill-rule="evenodd" clip-rule="evenodd" d="M19.4356 8.14598C19.4356 6.69027 18.2559 5.51056 16.8002 5.51056C13.6655 5.51056 7.47661 5.51056 4.3419 5.51056C2.88619 5.51056 1.70648 6.69027 1.70648 8.14598V17.7293C1.70648 19.185 2.88619 20.3647 4.3419 20.3647H16.8002C18.2559 20.3647 19.4356 19.185 19.4356 17.7293V8.14598ZM17.9981 8.14598V17.7293C17.9981 18.3906 17.4615 18.9272 16.8002 18.9272C13.6655 18.9272 7.47661 18.9272 4.3419 18.9272C3.68065 18.9272 3.14398 18.3906 3.14398 17.7293V8.14598C3.14398 7.48473 3.68065 6.94806 4.3419 6.94806H16.8002C17.4615 6.94806 17.9981 7.48473 17.9981 8.14598Z" fill="#BFBFBF"/>
<path fill-rule="evenodd" clip-rule="evenodd" d="M5.26286 6.9471L5.30023 6.94806L5.3309 6.94423C5.4689 6.9241 6.01898 6.80718 6.01898 6.21685V5.27098C6.01898 4.95281 6.14548 4.64902 6.36973 4.42381C6.59494 4.19956 6.89873 4.07306 7.2169 4.07306H19.6752C20.3365 4.07306 20.8731 4.60973 20.8731 5.27098V14.8543C20.8731 15.1725 20.7467 15.4763 20.5224 15.7015C20.2972 15.9257 19.9934 16.0522 19.6752 16.0522H18.7169C18.3201 16.0522 17.9981 16.3742 17.9981 16.771C17.9981 17.1677 18.3201 17.4897 18.7169 17.4897H19.6752C20.3739 17.4897 21.0447 17.2118 21.5392 16.7183C22.0327 16.2238 22.3106 15.5529 22.3106 14.8543V5.27098C22.3106 3.81527 21.1309 2.63556 19.6752 2.63556C16.5405 2.63556 10.3516 2.63556 7.2169 2.63556C6.51827 2.63556 5.84744 2.91348 5.35294 3.40702C4.8594 3.90152 4.58148 4.57235 4.58148 5.27098V6.21685V6.22931C4.58148 6.6136 4.88336 6.92793 5.26286 6.9471Z" fill="#BFBFBF"/>
<path fill-rule="evenodd" clip-rule="evenodd" d="M9.13786 12.6981C7.68311 12.6981 6.50244 13.8787 6.50244 15.3335C6.50244 16.7882 7.68311 17.9689 9.13786 17.9689C10.5926 17.9689 11.7733 16.7882 11.7733 15.3335C11.7733 13.8787 10.5926 12.6981 9.13786 12.6981ZM9.13786 14.1356C9.79911 14.1356 10.3358 14.6722 10.3358 15.3335C10.3358 15.9947 9.79911 16.5314 9.13786 16.5314C8.47661 16.5314 7.93994 15.9947 7.93994 15.3335C7.93994 14.6722 8.47661 14.1356 9.13786 14.1356Z" fill="#BFBFBF"/>
<path fill-rule="evenodd" clip-rule="evenodd" d="M11.769 15.3335V9.96777L13.5266 11.1398C13.8562 11.3602 14.3028 11.2701 14.5232 10.9405C14.7436 10.6108 14.6536 10.1642 14.3239 9.94381L11.4489 8.02714C11.2285 7.88052 10.9448 7.86614 10.711 7.99168C10.4771 8.11627 10.3315 8.35968 10.3315 8.62514V15.3335C10.3315 15.7302 10.6535 16.0522 11.0502 16.0522C11.447 16.0522 11.769 15.7302 11.769 15.3335Z" fill="#BFBFBF"/>
</svg>
