<svg width="20" height="21" viewBox="0 0 20 21" fill="none" xmlns="http://www.w3.org/2000/svg">
<g clip-path="url(#clip0_1_3713)">
<path d="M14.6094 2.03204C12.9457 2.03204 11.4873 2.77388 10.3918 4.17739C10.2457 4.36458 10.1154 4.55185 10 4.73322C9.88457 4.55181 9.75434 4.36458 9.60824 4.17739C8.51273 2.77388 7.0543 2.03204 5.39062 2.03204C2.24781 2.03204 0 4.66357 0 7.82126C0 11.4319 2.95926 14.8348 9.59519 18.8549C9.71961 18.9302 9.85981 18.9679 10 18.9679C10.1402 18.9679 10.2804 18.9302 10.4048 18.8549C17.0407 14.8349 20 11.432 20 7.8213C20 4.66525 17.754 2.03204 14.6094 2.03204ZM16.3733 12.3172C14.9918 13.8586 12.9041 15.4818 10 17.2712C7.0959 15.4818 5.0082 13.8586 3.62668 12.3172C2.2377 10.7674 1.5625 9.29673 1.5625 7.8213C1.5625 5.54771 3.09898 3.59454 5.39062 3.59454C6.55766 3.59454 7.55273 4.10197 8.34824 5.10275C8.98434 5.9031 9.25234 6.72954 9.25422 6.73544C9.35598 7.06181 9.65816 7.28411 10 7.28411C10.3419 7.28411 10.6441 7.06185 10.7459 6.73544C10.7483 6.72755 11.0083 5.92689 11.6235 5.13876C12.4233 4.11407 13.4279 3.5945 14.6094 3.5945C16.9034 3.5945 18.4375 5.54954 18.4375 7.82126C18.4375 9.29669 17.7623 10.7673 16.3733 12.3172Z" fill="#BFBFBF"/>
</g>
<defs>
<clipPath id="clip0_1_3713">
<rect width="20" height="20" fill="white" transform="translate(0 0.5)"/>
</clipPath>
</defs>
</svg>
