<svg width="20" height="21" viewBox="0 0 20 21" fill="none" xmlns="http://www.w3.org/2000/svg">
<g clip-path="url(#clip0_1_3700)">
<path d="M10.0001 20.4902C1.12359 20.4813 -3.34124 9.7014 2.92906 3.41918C6.65128 -0.459754 13.3489 -0.460379 17.0711 3.41934C23.3414 9.7021 18.876 20.4818 10.0001 20.4902ZM10.0001 2.05278C5.34761 2.05278 1.56257 5.83781 1.56257 10.4903C2.02605 21.6837 17.9757 21.6805 18.4375 10.4902C18.4375 5.83785 14.6525 2.05278 10.0001 2.05278ZM10.0001 11.2715C10.4315 11.2715 10.7813 10.9217 10.7813 10.4903C10.7402 9.45394 9.25979 9.45425 9.21881 10.4903C9.21881 10.9217 9.56857 11.2715 10.0001 11.2715ZM5.58608 15.6856C5.38202 15.6856 5.18237 15.6056 5.03354 15.4568C4.8264 15.2496 4.75257 14.944 4.84226 14.6651L6.99069 7.98546C7.06776 7.74582 7.25557 7.558 7.49522 7.48093L14.1749 5.3325C14.4537 5.24281 14.7593 5.31668 14.9665 5.52379C15.1737 5.73094 15.2475 6.03652 15.1578 6.31543L13.0094 12.9951C13.0038 13.0123 12.9977 13.0293 12.991 13.046C12.8546 13.3871 12.5678 13.4794 12.43 13.5237L5.82518 15.6481C5.74667 15.6733 5.66604 15.6856 5.58608 15.6856ZM8.35537 8.84558L6.79577 13.6946C8.35291 13.1938 10.7275 12.4301 11.6447 12.135L13.2043 7.28597L8.35537 8.84558Z" fill="#BFBFBF"/>
</g>
<defs>
<clipPath id="clip0_1_3700">
<rect width="20" height="20" fill="white" transform="translate(0 0.5)"/>
</clipPath>
</defs>
</svg>
